<mxfile host="app.diagrams.net" modified="2021-06-28T09:03:57.955Z" agent="5.0 (Macintosh; Intel Mac OS X 10_15_7) AppleWebKit/537.36 (KHTML, like Gecko) Chrome/91.0.4472.114 Safari/537.36" etag="msceuFtboMjdH0Kr7iS_" version="14.8.1" type="github">
  <diagram id="E4LpjVcYntZtsbpMwenJ" name="Page-1">
    <mxGraphModel dx="1426" dy="826" grid="1" gridSize="10" guides="1" tooltips="1" connect="1" arrows="1" fold="1" page="1" pageScale="1" pageWidth="827" pageHeight="1169" math="0" shadow="0">
      <root>
        <mxCell id="0" />
        <mxCell id="1" parent="0" />
        <mxCell id="zclL8BPckV4hVnCnkDxr-1" style="edgeStyle=orthogonalEdgeStyle;rounded=0;orthogonalLoop=1;jettySize=auto;html=1;exitX=0.5;exitY=1;exitDx=0;exitDy=0;entryX=0.5;entryY=0;entryDx=0;entryDy=0;" edge="1" parent="1" source="zclL8BPckV4hVnCnkDxr-2" target="zclL8BPckV4hVnCnkDxr-12">
          <mxGeometry relative="1" as="geometry" />
        </mxCell>
        <mxCell id="zclL8BPckV4hVnCnkDxr-2" value="登录admin.xesv5.com" style="rounded=1;whiteSpace=wrap;html=1;fontSize=12;glass=0;strokeWidth=1;shadow=0;" vertex="1" parent="1">
          <mxGeometry x="160" y="20" width="120" height="40" as="geometry" />
        </mxCell>
        <mxCell id="zclL8BPckV4hVnCnkDxr-11" style="edgeStyle=orthogonalEdgeStyle;rounded=0;orthogonalLoop=1;jettySize=auto;html=1;exitX=0.5;exitY=1;exitDx=0;exitDy=0;entryX=0.5;entryY=0;entryDx=0;entryDy=0;" edge="1" parent="1" source="zclL8BPckV4hVnCnkDxr-12" target="zclL8BPckV4hVnCnkDxr-14">
          <mxGeometry relative="1" as="geometry" />
        </mxCell>
        <mxCell id="zclL8BPckV4hVnCnkDxr-12" value="进入客服工作台&lt;br&gt;kefu.xesv5.com" style="rounded=0;whiteSpace=wrap;html=1;fontSize=12;glass=0;strokeWidth=1;shadow=0;" vertex="1" parent="1">
          <mxGeometry x="160" y="120" width="120" height="40" as="geometry" />
        </mxCell>
        <mxCell id="zclL8BPckV4hVnCnkDxr-13" style="edgeStyle=orthogonalEdgeStyle;rounded=0;orthogonalLoop=1;jettySize=auto;html=1;exitX=0.5;exitY=1;exitDx=0;exitDy=0;" edge="1" parent="1" source="zclL8BPckV4hVnCnkDxr-14">
          <mxGeometry relative="1" as="geometry">
            <mxPoint x="220" y="310" as="targetPoint" />
          </mxGeometry>
        </mxCell>
        <mxCell id="zclL8BPckV4hVnCnkDxr-14" value="客服选择业务身份" style="rounded=0;whiteSpace=wrap;html=1;fontSize=12;glass=0;strokeWidth=1;shadow=0;" vertex="1" parent="1">
          <mxGeometry x="160" y="220" width="120" height="40" as="geometry" />
        </mxCell>
        <mxCell id="zclL8BPckV4hVnCnkDxr-25" value="客服选择接待能力&lt;br&gt;（呼叫/在线/非坐席）" style="rounded=0;whiteSpace=wrap;html=1;fontSize=12;glass=0;strokeWidth=1;shadow=0;" vertex="1" parent="1">
          <mxGeometry x="160" y="310" width="120" height="40" as="geometry" />
        </mxCell>
        <mxCell id="zclL8BPckV4hVnCnkDxr-26" style="edgeStyle=orthogonalEdgeStyle;rounded=0;orthogonalLoop=1;jettySize=auto;html=1;exitX=0.5;exitY=1;exitDx=0;exitDy=0;" edge="1" parent="1">
          <mxGeometry relative="1" as="geometry">
            <mxPoint x="220" y="350" as="sourcePoint" />
            <mxPoint x="220" y="400" as="targetPoint" />
          </mxGeometry>
        </mxCell>
        <mxCell id="zclL8BPckV4hVnCnkDxr-27" value="查询客服权限，&lt;br&gt;加载资源" style="rounded=0;whiteSpace=wrap;html=1;fontSize=12;glass=0;strokeWidth=1;shadow=0;" vertex="1" parent="1">
          <mxGeometry x="160" y="400" width="120" height="40" as="geometry" />
        </mxCell>
        <mxCell id="zclL8BPckV4hVnCnkDxr-30" style="edgeStyle=orthogonalEdgeStyle;rounded=0;orthogonalLoop=1;jettySize=auto;html=1;exitX=0.5;exitY=1;exitDx=0;exitDy=0;" edge="1" parent="1">
          <mxGeometry relative="1" as="geometry">
            <mxPoint x="219.5" y="530" as="sourcePoint" />
            <mxPoint x="219.5" y="580" as="targetPoint" />
          </mxGeometry>
        </mxCell>
        <mxCell id="zclL8BPckV4hVnCnkDxr-31" value="等待用户进线" style="rounded=0;whiteSpace=wrap;html=1;fontSize=12;glass=0;strokeWidth=1;shadow=0;" vertex="1" parent="1">
          <mxGeometry x="160" y="580" width="120" height="40" as="geometry" />
        </mxCell>
        <mxCell id="zclL8BPckV4hVnCnkDxr-32" value="用户进入，接起" style="rounded=0;whiteSpace=wrap;html=1;fontSize=12;glass=0;strokeWidth=1;shadow=0;" vertex="1" parent="1">
          <mxGeometry x="160" y="670" width="120" height="40" as="geometry" />
        </mxCell>
        <mxCell id="zclL8BPckV4hVnCnkDxr-36" style="edgeStyle=orthogonalEdgeStyle;rounded=0;orthogonalLoop=1;jettySize=auto;html=1;exitX=0.5;exitY=1;exitDx=0;exitDy=0;" edge="1" parent="1">
          <mxGeometry relative="1" as="geometry">
            <mxPoint x="219.5" y="620" as="sourcePoint" />
            <mxPoint x="219.5" y="670" as="targetPoint" />
          </mxGeometry>
        </mxCell>
        <mxCell id="zclL8BPckV4hVnCnkDxr-37" value="弹屏显示&lt;br&gt;用户信息、标签" style="rounded=0;whiteSpace=wrap;html=1;fontSize=12;glass=0;strokeWidth=1;shadow=0;" vertex="1" parent="1">
          <mxGeometry x="340" y="670" width="120" height="40" as="geometry" />
        </mxCell>
        <mxCell id="zclL8BPckV4hVnCnkDxr-40" value="加载用户&lt;br&gt;未完结工单" style="rounded=0;whiteSpace=wrap;html=1;fontSize=12;glass=0;strokeWidth=1;shadow=0;" vertex="1" parent="1">
          <mxGeometry x="520" y="670" width="120" height="40" as="geometry" />
        </mxCell>
        <mxCell id="zclL8BPckV4hVnCnkDxr-42" value="加载用户&lt;br&gt;最近订单/课程" style="rounded=0;whiteSpace=wrap;html=1;fontSize=12;glass=0;strokeWidth=1;shadow=0;" vertex="1" parent="1">
          <mxGeometry x="700" y="670" width="120" height="40" as="geometry" />
        </mxCell>
        <mxCell id="zclL8BPckV4hVnCnkDxr-44" value="加载用户&lt;br&gt;服务轨迹" style="rounded=0;whiteSpace=wrap;html=1;fontSize=12;glass=0;strokeWidth=1;shadow=0;" vertex="1" parent="1">
          <mxGeometry x="880" y="670" width="120" height="40" as="geometry" />
        </mxCell>
        <mxCell id="zclL8BPckV4hVnCnkDxr-47" style="edgeStyle=orthogonalEdgeStyle;rounded=0;orthogonalLoop=1;jettySize=auto;html=1;exitX=1;exitY=0.5;exitDx=0;exitDy=0;entryX=0;entryY=0.5;entryDx=0;entryDy=0;" edge="1" parent="1">
          <mxGeometry relative="1" as="geometry">
            <mxPoint x="460" y="689.5" as="sourcePoint" />
            <mxPoint x="520" y="689.5" as="targetPoint" />
          </mxGeometry>
        </mxCell>
        <mxCell id="zclL8BPckV4hVnCnkDxr-48" style="edgeStyle=orthogonalEdgeStyle;rounded=0;orthogonalLoop=1;jettySize=auto;html=1;exitX=1;exitY=0.5;exitDx=0;exitDy=0;entryX=0;entryY=0.5;entryDx=0;entryDy=0;" edge="1" parent="1">
          <mxGeometry relative="1" as="geometry">
            <mxPoint x="820" y="689.5" as="sourcePoint" />
            <mxPoint x="880" y="689.5" as="targetPoint" />
          </mxGeometry>
        </mxCell>
        <mxCell id="zclL8BPckV4hVnCnkDxr-49" style="edgeStyle=orthogonalEdgeStyle;rounded=0;orthogonalLoop=1;jettySize=auto;html=1;exitX=1;exitY=0.5;exitDx=0;exitDy=0;entryX=0;entryY=0.5;entryDx=0;entryDy=0;" edge="1" parent="1">
          <mxGeometry relative="1" as="geometry">
            <mxPoint x="640" y="689.5" as="sourcePoint" />
            <mxPoint x="700" y="689.5" as="targetPoint" />
          </mxGeometry>
        </mxCell>
        <mxCell id="zclL8BPckV4hVnCnkDxr-58" style="edgeStyle=orthogonalEdgeStyle;rounded=0;orthogonalLoop=1;jettySize=auto;html=1;exitX=0.5;exitY=0;exitDx=0;exitDy=0;entryX=0.5;entryY=1;entryDx=0;entryDy=0;" edge="1" parent="1" source="zclL8BPckV4hVnCnkDxr-50" target="zclL8BPckV4hVnCnkDxr-37">
          <mxGeometry relative="1" as="geometry" />
        </mxCell>
        <mxCell id="zclL8BPckV4hVnCnkDxr-59" value="是" style="edgeLabel;html=1;align=center;verticalAlign=middle;resizable=0;points=[];" vertex="1" connectable="0" parent="zclL8BPckV4hVnCnkDxr-58">
          <mxGeometry x="-0.16" y="-2" relative="1" as="geometry">
            <mxPoint as="offset" />
          </mxGeometry>
        </mxCell>
        <mxCell id="zclL8BPckV4hVnCnkDxr-63" style="edgeStyle=orthogonalEdgeStyle;rounded=0;orthogonalLoop=1;jettySize=auto;html=1;exitX=0;exitY=0.5;exitDx=0;exitDy=0;entryX=1;entryY=0.5;entryDx=0;entryDy=0;" edge="1" parent="1" source="zclL8BPckV4hVnCnkDxr-50" target="zclL8BPckV4hVnCnkDxr-62">
          <mxGeometry relative="1" as="geometry" />
        </mxCell>
        <mxCell id="zclL8BPckV4hVnCnkDxr-64" value="否" style="edgeLabel;html=1;align=center;verticalAlign=middle;resizable=0;points=[];" vertex="1" connectable="0" parent="zclL8BPckV4hVnCnkDxr-63">
          <mxGeometry x="0.05" y="-2" relative="1" as="geometry">
            <mxPoint as="offset" />
          </mxGeometry>
        </mxCell>
        <mxCell id="zclL8BPckV4hVnCnkDxr-50" value="确认用户，&lt;br&gt;是否需要切换" style="rhombus;whiteSpace=wrap;html=1;" vertex="1" parent="1">
          <mxGeometry x="360" y="770" width="80" height="80" as="geometry" />
        </mxCell>
        <mxCell id="zclL8BPckV4hVnCnkDxr-56" style="edgeStyle=orthogonalEdgeStyle;rounded=0;orthogonalLoop=1;jettySize=auto;html=1;entryX=1;entryY=0.5;entryDx=0;entryDy=0;exitX=0.5;exitY=1;exitDx=0;exitDy=0;" edge="1" parent="1" source="zclL8BPckV4hVnCnkDxr-44" target="zclL8BPckV4hVnCnkDxr-50">
          <mxGeometry relative="1" as="geometry">
            <mxPoint x="950" y="790" as="sourcePoint" />
            <mxPoint x="1060" y="769.5" as="targetPoint" />
            <Array as="points">
              <mxPoint x="940" y="810" />
            </Array>
          </mxGeometry>
        </mxCell>
        <mxCell id="zclL8BPckV4hVnCnkDxr-60" style="edgeStyle=orthogonalEdgeStyle;rounded=0;orthogonalLoop=1;jettySize=auto;html=1;exitX=1;exitY=0.5;exitDx=0;exitDy=0;entryX=0;entryY=0.5;entryDx=0;entryDy=0;" edge="1" parent="1">
          <mxGeometry relative="1" as="geometry">
            <mxPoint x="280" y="689.5" as="sourcePoint" />
            <mxPoint x="340" y="689.5" as="targetPoint" />
          </mxGeometry>
        </mxCell>
        <mxCell id="zclL8BPckV4hVnCnkDxr-62" value="与用户沟通" style="rounded=0;whiteSpace=wrap;html=1;fontSize=12;glass=0;strokeWidth=1;shadow=0;" vertex="1" parent="1">
          <mxGeometry x="160" y="790" width="120" height="40" as="geometry" />
        </mxCell>
        <mxCell id="zclL8BPckV4hVnCnkDxr-65" value="业务查询&lt;br&gt;用户信息、订单信息、讲次信息、卡券信息、物流信息、日志信息 。。。" style="rounded=0;whiteSpace=wrap;html=1;fontSize=12;glass=0;strokeWidth=1;shadow=0;" vertex="1" parent="1">
          <mxGeometry x="160" y="880" width="460" height="40" as="geometry" />
        </mxCell>
        <mxCell id="zclL8BPckV4hVnCnkDxr-66" style="edgeStyle=orthogonalEdgeStyle;rounded=0;orthogonalLoop=1;jettySize=auto;html=1;exitX=0.5;exitY=1;exitDx=0;exitDy=0;" edge="1" parent="1">
          <mxGeometry relative="1" as="geometry">
            <mxPoint x="219.5" y="830" as="sourcePoint" />
            <mxPoint x="219.5" y="880" as="targetPoint" />
          </mxGeometry>
        </mxCell>
        <mxCell id="zclL8BPckV4hVnCnkDxr-67" value="业务操作&lt;br&gt;修改用户信息、调课调讲、退课、优惠券补发、物流补发、短信推送 。。。" style="rounded=0;whiteSpace=wrap;html=1;fontSize=12;glass=0;strokeWidth=1;shadow=0;" vertex="1" parent="1">
          <mxGeometry x="160" y="970" width="460" height="40" as="geometry" />
        </mxCell>
        <mxCell id="zclL8BPckV4hVnCnkDxr-68" style="edgeStyle=orthogonalEdgeStyle;rounded=0;orthogonalLoop=1;jettySize=auto;html=1;exitX=0.5;exitY=1;exitDx=0;exitDy=0;" edge="1" parent="1">
          <mxGeometry relative="1" as="geometry">
            <mxPoint x="219.5" y="920" as="sourcePoint" />
            <mxPoint x="219.5" y="970" as="targetPoint" />
          </mxGeometry>
        </mxCell>
        <mxCell id="zclL8BPckV4hVnCnkDxr-69" style="edgeStyle=orthogonalEdgeStyle;rounded=0;orthogonalLoop=1;jettySize=auto;html=1;exitX=0.5;exitY=1;exitDx=0;exitDy=0;" edge="1" parent="1">
          <mxGeometry relative="1" as="geometry">
            <mxPoint x="219.5" y="1010" as="sourcePoint" />
            <mxPoint x="219.5" y="1060" as="targetPoint" />
          </mxGeometry>
        </mxCell>
        <mxCell id="zclL8BPckV4hVnCnkDxr-70" value="记录服务总结" style="rounded=0;whiteSpace=wrap;html=1;fontSize=12;glass=0;strokeWidth=1;shadow=0;" vertex="1" parent="1">
          <mxGeometry x="160" y="1060" width="120" height="40" as="geometry" />
        </mxCell>
        <mxCell id="zclL8BPckV4hVnCnkDxr-75" style="edgeStyle=orthogonalEdgeStyle;rounded=0;orthogonalLoop=1;jettySize=auto;html=1;exitX=1;exitY=0.5;exitDx=0;exitDy=0;entryX=0;entryY=0.5;entryDx=0;entryDy=0;" edge="1" parent="1" source="zclL8BPckV4hVnCnkDxr-72" target="zclL8BPckV4hVnCnkDxr-74">
          <mxGeometry relative="1" as="geometry" />
        </mxCell>
        <mxCell id="zclL8BPckV4hVnCnkDxr-78" value="是" style="edgeLabel;html=1;align=center;verticalAlign=middle;resizable=0;points=[];" vertex="1" connectable="0" parent="zclL8BPckV4hVnCnkDxr-75">
          <mxGeometry x="-0.1667" y="2" relative="1" as="geometry">
            <mxPoint as="offset" />
          </mxGeometry>
        </mxCell>
        <mxCell id="zclL8BPckV4hVnCnkDxr-72" value="需要流转&lt;br&gt;客诉处理？" style="rhombus;whiteSpace=wrap;html=1;" vertex="1" parent="1">
          <mxGeometry x="180" y="1150" width="80" height="80" as="geometry" />
        </mxCell>
        <mxCell id="zclL8BPckV4hVnCnkDxr-73" style="edgeStyle=orthogonalEdgeStyle;rounded=0;orthogonalLoop=1;jettySize=auto;html=1;exitX=0.5;exitY=1;exitDx=0;exitDy=0;" edge="1" parent="1">
          <mxGeometry relative="1" as="geometry">
            <mxPoint x="219.5" y="1100" as="sourcePoint" />
            <mxPoint x="219.5" y="1150" as="targetPoint" />
          </mxGeometry>
        </mxCell>
        <mxCell id="zclL8BPckV4hVnCnkDxr-82" style="edgeStyle=orthogonalEdgeStyle;rounded=0;orthogonalLoop=1;jettySize=auto;html=1;exitX=0.5;exitY=1;exitDx=0;exitDy=0;entryX=1;entryY=0.5;entryDx=0;entryDy=0;" edge="1" parent="1" source="zclL8BPckV4hVnCnkDxr-74" target="zclL8BPckV4hVnCnkDxr-81">
          <mxGeometry relative="1" as="geometry" />
        </mxCell>
        <mxCell id="zclL8BPckV4hVnCnkDxr-74" value="创建工单" style="rounded=0;whiteSpace=wrap;html=1;fontSize=12;glass=0;strokeWidth=1;shadow=0;" vertex="1" parent="1">
          <mxGeometry x="320" y="1170" width="120" height="40" as="geometry" />
        </mxCell>
        <mxCell id="zclL8BPckV4hVnCnkDxr-76" value="客诉流转" style="rounded=0;whiteSpace=wrap;html=1;fontSize=12;glass=0;strokeWidth=1;shadow=0;" vertex="1" parent="1">
          <mxGeometry x="500" y="1170" width="120" height="40" as="geometry" />
        </mxCell>
        <mxCell id="zclL8BPckV4hVnCnkDxr-77" style="edgeStyle=orthogonalEdgeStyle;rounded=0;orthogonalLoop=1;jettySize=auto;html=1;exitX=1;exitY=0.5;exitDx=0;exitDy=0;entryX=0;entryY=0.5;entryDx=0;entryDy=0;" edge="1" parent="1">
          <mxGeometry relative="1" as="geometry">
            <mxPoint x="440" y="1189.5" as="sourcePoint" />
            <mxPoint x="500" y="1189.5" as="targetPoint" />
          </mxGeometry>
        </mxCell>
        <mxCell id="zclL8BPckV4hVnCnkDxr-79" style="edgeStyle=orthogonalEdgeStyle;rounded=0;orthogonalLoop=1;jettySize=auto;html=1;exitX=0.5;exitY=1;exitDx=0;exitDy=0;" edge="1" parent="1">
          <mxGeometry relative="1" as="geometry">
            <mxPoint x="219.5" y="1230" as="sourcePoint" />
            <mxPoint x="219.5" y="1280" as="targetPoint" />
          </mxGeometry>
        </mxCell>
        <mxCell id="zclL8BPckV4hVnCnkDxr-80" value="否" style="edgeLabel;html=1;align=center;verticalAlign=middle;resizable=0;points=[];" vertex="1" connectable="0" parent="zclL8BPckV4hVnCnkDxr-79">
          <mxGeometry x="-0.32" relative="1" as="geometry">
            <mxPoint as="offset" />
          </mxGeometry>
        </mxCell>
        <mxCell id="zclL8BPckV4hVnCnkDxr-81" value="结束会话" style="rounded=0;whiteSpace=wrap;html=1;fontSize=12;glass=0;strokeWidth=1;shadow=0;" vertex="1" parent="1">
          <mxGeometry x="160" y="1280" width="120" height="40" as="geometry" />
        </mxCell>
        <mxCell id="zclL8BPckV4hVnCnkDxr-92" value="切换状态为在线" style="rounded=0;whiteSpace=wrap;html=1;fontSize=12;glass=0;strokeWidth=1;shadow=0;" vertex="1" parent="1">
          <mxGeometry x="160" y="490" width="120" height="40" as="geometry" />
        </mxCell>
        <mxCell id="zclL8BPckV4hVnCnkDxr-93" style="edgeStyle=orthogonalEdgeStyle;rounded=0;orthogonalLoop=1;jettySize=auto;html=1;exitX=0.5;exitY=1;exitDx=0;exitDy=0;" edge="1" parent="1">
          <mxGeometry relative="1" as="geometry">
            <mxPoint x="219.5" y="440" as="sourcePoint" />
            <mxPoint x="219.5" y="490" as="targetPoint" />
          </mxGeometry>
        </mxCell>
        <mxCell id="zclL8BPckV4hVnCnkDxr-100" value="" style="edgeStyle=orthogonalEdgeStyle;rounded=0;orthogonalLoop=1;jettySize=auto;html=1;" edge="1" parent="1" source="zclL8BPckV4hVnCnkDxr-94" target="zclL8BPckV4hVnCnkDxr-97">
          <mxGeometry relative="1" as="geometry" />
        </mxCell>
        <mxCell id="zclL8BPckV4hVnCnkDxr-94" value="切换状态为离线" style="rounded=0;whiteSpace=wrap;html=1;fontSize=12;glass=0;strokeWidth=1;shadow=0;" vertex="1" parent="1">
          <mxGeometry x="160" y="1500" width="120" height="40" as="geometry" />
        </mxCell>
        <mxCell id="zclL8BPckV4hVnCnkDxr-95" style="edgeStyle=orthogonalEdgeStyle;rounded=0;orthogonalLoop=1;jettySize=auto;html=1;exitX=0.5;exitY=1;exitDx=0;exitDy=0;" edge="1" parent="1">
          <mxGeometry relative="1" as="geometry">
            <mxPoint x="219.5" y="1320" as="sourcePoint" />
            <mxPoint x="219.5" y="1370" as="targetPoint" />
          </mxGeometry>
        </mxCell>
        <mxCell id="zclL8BPckV4hVnCnkDxr-96" value="否" style="edgeLabel;html=1;align=center;verticalAlign=middle;resizable=0;points=[];" vertex="1" connectable="0" parent="zclL8BPckV4hVnCnkDxr-95">
          <mxGeometry x="-0.32" relative="1" as="geometry">
            <mxPoint as="offset" />
          </mxGeometry>
        </mxCell>
        <mxCell id="zclL8BPckV4hVnCnkDxr-101" style="edgeStyle=orthogonalEdgeStyle;rounded=0;orthogonalLoop=1;jettySize=auto;html=1;exitX=0;exitY=0.5;exitDx=0;exitDy=0;entryX=0;entryY=0.5;entryDx=0;entryDy=0;" edge="1" parent="1" source="zclL8BPckV4hVnCnkDxr-97" target="zclL8BPckV4hVnCnkDxr-31">
          <mxGeometry relative="1" as="geometry">
            <Array as="points">
              <mxPoint x="80" y="1410" />
              <mxPoint x="80" y="600" />
            </Array>
          </mxGeometry>
        </mxCell>
        <mxCell id="zclL8BPckV4hVnCnkDxr-106" value="否" style="edgeLabel;html=1;align=center;verticalAlign=middle;resizable=0;points=[];" vertex="1" connectable="0" parent="zclL8BPckV4hVnCnkDxr-101">
          <mxGeometry x="-0.3778" relative="1" as="geometry">
            <mxPoint as="offset" />
          </mxGeometry>
        </mxCell>
        <mxCell id="zclL8BPckV4hVnCnkDxr-97" value="下班？" style="rhombus;whiteSpace=wrap;html=1;" vertex="1" parent="1">
          <mxGeometry x="180" y="1370" width="80" height="80" as="geometry" />
        </mxCell>
        <mxCell id="zclL8BPckV4hVnCnkDxr-98" style="edgeStyle=orthogonalEdgeStyle;rounded=0;orthogonalLoop=1;jettySize=auto;html=1;exitX=0.5;exitY=1;exitDx=0;exitDy=0;" edge="1" parent="1">
          <mxGeometry relative="1" as="geometry">
            <mxPoint x="219.5" y="1450" as="sourcePoint" />
            <mxPoint x="219.5" y="1500" as="targetPoint" />
          </mxGeometry>
        </mxCell>
        <mxCell id="zclL8BPckV4hVnCnkDxr-99" value="是" style="edgeLabel;html=1;align=center;verticalAlign=middle;resizable=0;points=[];" vertex="1" connectable="0" parent="zclL8BPckV4hVnCnkDxr-98">
          <mxGeometry x="-0.32" relative="1" as="geometry">
            <mxPoint as="offset" />
          </mxGeometry>
        </mxCell>
        <mxCell id="zclL8BPckV4hVnCnkDxr-103" value="结束" style="rounded=0;whiteSpace=wrap;html=1;fontSize=12;glass=0;strokeWidth=1;shadow=0;" vertex="1" parent="1">
          <mxGeometry x="160" y="1590" width="120" height="40" as="geometry" />
        </mxCell>
        <mxCell id="zclL8BPckV4hVnCnkDxr-104" style="edgeStyle=orthogonalEdgeStyle;rounded=0;orthogonalLoop=1;jettySize=auto;html=1;exitX=0.5;exitY=1;exitDx=0;exitDy=0;" edge="1" parent="1">
          <mxGeometry relative="1" as="geometry">
            <mxPoint x="219.5" y="1540" as="sourcePoint" />
            <mxPoint x="219.5" y="1590" as="targetPoint" />
          </mxGeometry>
        </mxCell>
      </root>
    </mxGraphModel>
  </diagram>
</mxfile>
